simulation
nRows=31
nColumns=15
endheader
time  TH_x TH_y TH_z SC_y  SC_z  SC_x  AC_y  AC_z  AC_x  GH_y  GH_z  GH_yy  EL_x  PS_y
0.000000  0.000000  0.000000  0.000000  -29.556349  -2.234723  -11.128548  53.557527  13.358169  1.625595  17.719004  12.035138  6.110542  25.620880  0.000000
0.010000  0.000000  0.000000  0.000000  -29.637955  -2.247977  -11.138133  53.680452  13.346001  1.560762  17.698177  12.179462  6.226691  25.617617  0.000000
0.020000  0.000000  0.000000  0.000000  -29.709283  -2.256836  -11.131850  53.778406  13.327345  1.509022  17.697621  12.351743  6.278456  25.608651  0.000000
0.030000  0.000000  0.000000  0.000000  -29.771044  -2.261491  -11.110894  53.853802  13.302976  1.468975  17.715136  12.550721  6.270791  25.594493  0.000000
0.040000  0.000000  0.000000  0.000000  -29.823922  -2.262127  -11.076395  53.908921  13.273649  1.439302  17.748650  12.775163  6.208414  25.575619  0.000000
0.050000  0.000000  0.000000  0.000000  -29.868575  -2.258928  -11.029429  53.945920  13.240090  1.418760  17.796217  13.023864  6.095816  25.552471  0.000000
0.060000  0.000000  0.000000  0.000000  -29.905637  -2.252070  -10.971016  53.966832  13.203008  1.406178  17.856010  13.295651  5.937263  25.525456  0.000000
0.070000  0.000000  0.000000  0.000000  -29.935714  -2.241729  -10.902123  53.973572  13.163086  1.400461  17.926322  13.589377  5.736806  25.494952  0.000000
0.080000  0.000000  0.000000  0.000000  -29.959392  -2.228073  -10.823663  53.967940  13.120984  1.400583  18.005555  13.903923  5.498285  25.461306  0.000000
0.090000  0.000000  0.000000  0.000000  -29.977231  -2.211269  -10.736500  53.951623  13.077341  1.405584  18.092220  14.238199  5.225338  25.424835  0.000000
0.100000  0.000000  0.000000  0.000000  -29.989766  -2.191479  -10.641448  53.926202  13.032775  1.414571  18.184935  14.591143  4.921407  25.385831  0.000000
0.110000  0.000000  0.000000  0.000000  -29.997513  -2.168859  -10.539274  53.893155  12.987878  1.426715  18.282417  14.961718  4.589742  25.344557  0.000000
0.120000  0.000000  0.000000  0.000000  -30.000963  -2.143565  -10.430699  53.853856  12.943223  1.441247  18.383480  15.348916  4.233409  25.301252  0.000000
0.130000  0.000000  0.000000  0.000000  -30.000585  -2.115746  -10.316401  53.809584  12.899361  1.457458  18.487032  15.751755  3.855296  25.256130  0.000000
0.140000  0.000000  0.000000  0.000000  -29.996830  -2.085546  -10.197013  53.761524  12.856820  1.474695  18.592071  16.169279  3.458118  25.209382  0.000000
0.150000  0.000000  0.000000  0.000000  -29.990125  -2.053109  -10.073129  53.710771  12.816109  1.492362  18.697680  16.600558  3.044424  25.161179  0.000000
0.160000  0.000000  0.000000  0.000000  -29.980879  -2.018572  -9.945301  53.658332  12.777713  1.509913  18.803025  17.044687  2.616602  25.111671  0.000000
0.170000  0.000000  0.000000  0.000000  -29.969478  -1.982069  -9.814045  53.605131  12.742097  1.526856  18.907352  17.500788  2.176885  25.060985  0.000000
0.180000  0.000000  0.000000  0.000000  -29.956293  -1.943730  -9.679839  53.552011  12.709705  1.542747  19.009982  17.968007  1.727358  25.009234  0.000000
0.190000  0.000000  0.000000  0.000000  -29.941674  -1.903680  -9.543124  53.499738  12.680963  1.557188  19.110309  18.445515  1.269958  24.956511  0.000000
0.200000  0.000000  0.000000  0.000000  -29.925952  -1.862042  -9.404310  53.449002  12.656271  1.569827  19.207794  18.932507  0.806489  24.902894  0.000000
0.210000  0.000000  0.000000  0.000000  -29.909442  -1.818934  -9.263773  53.400424  12.636014  1.580357  19.301966  19.428202  0.338618  24.848443  0.000000
0.220000  0.000000  0.000000  0.000000  -29.892440  -1.774471  -9.121855  53.354556  12.620554  1.588509  19.392417  19.931843  -0.132115  24.793207  0.000000
0.230000  0.000000  0.000000  0.000000  -29.875227  -1.728763  -8.978871  53.311884  12.610234  1.594058  19.478797  20.442697  -0.604292  24.737219  0.000000
0.240000  0.000000  0.000000  0.000000  -29.858064  -1.681918  -8.835108  53.272833  12.605377  1.596812  19.560812  20.960053  -1.076613  24.680500  0.000000
0.250000  0.000000  0.000000  0.000000  -29.841201  -1.634038  -8.690822  53.237767  12.606288  1.596619  19.638225  21.483224  -1.547891  24.623060  0.000000
0.260000  0.000000  0.000000  0.000000  -29.824868  -1.585222  -8.546244  53.206993  12.613250  1.593360  19.710846  22.011545  -2.017047  24.564899  0.000000
0.270000  0.000000  0.000000  0.000000  -29.809282  -1.535567  -8.401582  53.180767  12.626530  1.586949  19.778534  22.544372  -2.483103  24.506004  0.000000
0.280000  0.000000  0.000000  0.000000  -29.794646  -1.485165  -8.257018  53.159290  12.646374  1.577330  19.841193  23.081085  -2.945182  24.446356  0.000000
0.290000  0.000000  0.000000  0.000000  -29.781146  -1.434104  -8.112712  53.142717  12.673010  1.564478  19.898770  23.621083  -3.402500  24.385928  0.000000
0.300000  0.000000  0.000000  0.000000  -29.768958  -1.382469  -7.968803  53.131156  12.706650  1.548395  19.951250  24.163789  -3.854361  24.324683  0.000000
